<svg width="24" height="24" viewBox="0 0 24 24" fill="none" xmlns="http://www.w3.org/2000/svg">
<circle cx="12" cy="12" r="7.54838" fill="#70C080" stroke="#5A383B" stroke-width="1.3"/>
<path d="M20.735 2.43213C20.735 3.28704 21.428 3.98009 22.2829 3.98009C21.428 3.98009 20.735 4.67314 20.735 5.52805C20.735 4.67314 20.0419 3.98009 19.187 3.98009C20.0419 3.98009 20.735 3.28704 20.735 2.43213Z" stroke="#5A383B" stroke-width="1.3" stroke-linejoin="round"/>
<path d="M3.75798 17.7622C3.75798 19.0227 4.77984 20.0446 6.04037 20.0446C4.77984 20.0446 3.75798 21.0665 3.75798 22.327C3.75798 21.0665 2.73611 20.0446 1.47559 20.0446C2.73611 20.0446 3.75798 19.0227 3.75798 17.7622Z" stroke="#5A383B" stroke-width="1.3" stroke-linejoin="round"/>
<circle cx="21.9942" cy="9.29746" r="0.65" fill="#5A383B"/>
<circle cx="16.8351" cy="2.04014" r="0.65" fill="#5A383B"/>
<circle cx="7.83408" cy="21.6773" r="0.65" fill="#5A383B"/>
<path d="M12 7.45996L12 16.5399" stroke="#5A383B" stroke-width="1.3" stroke-linecap="round"/>
<path d="M13.4348 15.7008L13.4796 15.7902C13.892 15.5834 14.2091 15.3025 14.4262 14.9464C14.645 14.5914 14.7539 14.1942 14.7539 13.7576C14.7539 13.3812 14.6807 13.0564 14.5288 12.7879C14.3809 12.5265 14.1919 12.311 13.9617 12.1431C13.7394 11.9766 13.5053 11.8447 13.2594 11.7479C13.0221 11.6536 12.8053 11.5791 12.6094 11.5249C12.6093 11.5249 12.6092 11.5249 12.6091 11.5248L11.8617 11.3129L11.8611 11.3127C11.7279 11.2758 11.581 11.2276 11.4203 11.1679C11.2641 11.1073 11.1147 11.0311 10.9721 10.939C10.835 10.8482 10.7228 10.7357 10.6347 10.6013C10.5532 10.4711 10.5102 10.3125 10.5102 10.1212C10.5102 9.89317 10.5717 9.69234 10.6937 9.5155C10.8189 9.33743 10.9935 9.19554 11.2214 9.09097C11.4504 8.98693 11.7211 8.93333 12.0358 8.93333C12.4655 8.93333 12.821 9.03531 13.1082 9.23378C13.2886 9.35847 13.4176 9.51332 13.4982 9.69877C13.5975 9.92722 13.8068 10.1455 14.0909 10.1455C14.3913 10.1455 14.6711 9.88755 14.5841 9.56298C14.5242 9.33916 14.4259 9.13091 14.2897 8.93863M13.4348 15.7008L13.4798 15.79C13.0669 15.9983 12.5699 16.1 11.9926 16.1C11.454 16.1 10.9823 16.0085 10.5803 15.8218L10.5801 15.8217C10.1818 15.6355 9.86528 15.3744 9.63373 15.0377L9.63345 15.0373C9.49677 14.8364 9.39566 14.6162 9.33007 14.3773C9.23774 14.041 9.52272 13.7636 9.84039 13.7636C10.1384 13.7636 10.3552 13.997 10.4523 14.2407C10.4946 14.3469 10.5514 14.4417 10.6227 14.5256C10.7762 14.7012 10.9702 14.8332 11.2069 14.9212C11.4492 15.0078 11.7109 15.0515 11.9926 15.0515C12.3215 15.0515 12.6133 14.9955 12.8699 14.8855C13.1269 14.7729 13.3269 14.6189 13.4735 14.4248C13.6178 14.2312 13.6908 14.0052 13.6908 13.7424C13.6908 13.5032 13.6277 13.3181 13.5095 13.1782C13.3838 13.0296 13.2167 12.9066 13.0051 12.8108C12.7868 12.7119 12.5503 12.6251 12.2954 12.5505L12.2947 12.5503L11.3884 12.2776L11.3882 12.2775C10.8019 12.1 10.3311 11.8446 9.98123 11.5076C9.62352 11.1632 9.4471 10.7129 9.4471 10.1667C9.4471 9.71429 9.56354 9.31521 9.79925 8.97352L9.79932 8.97341C10.0352 8.63241 10.3513 8.36875 10.7449 8.1824C11.141 7.99352 11.5815 7.9 12.0646 7.9C12.5519 7.9 12.9891 7.99208 13.3739 8.17886C13.757 8.36233 14.0633 8.6154 14.2897 8.93863M13.4348 15.7008C13.0392 15.9003 12.5585 16 11.9926 16C11.4652 16 11.0084 15.9104 10.6224 15.7311M13.4348 15.7008C13.8328 15.5013 14.1349 15.2323 14.341 14.8939C14.5496 14.5556 14.6539 14.1768 14.6539 13.7576C14.6539 13.3939 14.5832 13.0871 14.4417 12.8371C14.3003 12.5871 14.1205 12.3826 13.9023 12.2235L10.6224 15.7311M14.2897 8.93863C14.2898 8.9387 14.2898 8.93877 14.2899 8.93884L14.208 8.99621L14.2896 8.93842C14.2896 8.93849 14.2897 8.93856 14.2897 8.93863ZM10.6224 15.7311C10.2388 15.5518 9.9367 15.3018 9.71613 14.9811L10.6224 15.7311ZM11.8344 11.4091L12.5824 11.6212C12.7742 11.6742 12.9876 11.7475 13.2226 11.8409L11.8344 11.4091Z" fill="#5A383B" stroke="#5A383B" stroke-width="0.2"/>
</svg>
